<svg width="60" height="60" viewBox="0 0 60 60" fill="none" xmlns="http://www.w3.org/2000/svg">
<rect width="60" height="60" rx="14" fill="#6C5DD3"/>
<path d="M39.39 29.6C39.6647 29.3192 39.856 28.9676 39.9425 28.5845C40.0291 28.2013 40.0074 27.8016 39.88 27.43C39.7605 27.0573 39.5387 26.7257 39.2399 26.4729C38.9411 26.2201 38.5774 26.0562 38.19 26L33.9 25.34C33.88 25.3342 33.8616 25.324 33.846 25.3102C33.8304 25.2963 33.8181 25.2792 33.81 25.26L31.93 21.26C31.7652 20.8855 31.4949 20.5669 31.1523 20.3432C30.8096 20.1195 30.4093 20.0003 30 20C29.5955 19.9983 29.1992 20.1135 28.8585 20.3317C28.5179 20.5499 28.2476 20.8619 28.08 21.23L26.2 25.23C26.1898 25.2495 26.1756 25.2667 26.1584 25.2805C26.1412 25.2942 26.1213 25.3043 26.1 25.31L21.82 26C21.4321 26.0578 21.0679 26.2221 20.7677 26.4745C20.4676 26.727 20.2434 27.0577 20.12 27.43C19.9973 27.8029 19.9791 28.2023 20.0672 28.5848C20.1553 28.9673 20.3465 29.3184 20.62 29.6L23.78 32.85C23.7891 32.8705 23.7938 32.8926 23.7938 32.915C23.7938 32.9374 23.7891 32.9596 23.78 32.98L23.04 37.52C22.9712 37.9154 23.0161 38.3222 23.1694 38.6931C23.3226 39.064 23.578 39.3838 23.9059 39.6152C24.2337 39.8467 24.6205 39.9804 25.0213 40.0007C25.4221 40.021 25.8205 39.9272 26.17 39.73L29.9 37.66C29.9186 37.6504 29.9391 37.6453 29.96 37.6453C29.9809 37.6453 30.0015 37.6504 30.02 37.66L33.75 39.73C34.1001 39.9229 34.4973 40.0134 34.8963 39.9913C35.2954 39.9691 35.6801 39.835 36.0066 39.6045C36.3331 39.374 36.5882 39.0563 36.7426 38.6877C36.897 38.319 36.9447 37.9144 36.88 37.52L36.19 33C36.1795 32.9818 36.174 32.9611 36.174 32.94C36.174 32.919 36.1795 32.8983 36.19 32.88L39.39 29.6Z" fill="white"/>
</svg>
