<svg width="24" height="24" viewBox="0 0 24 24" fill="none" xmlns="http://www.w3.org/2000/svg">
<path d="M2.99994 11.0001H9.99994C10.2652 11.0001 10.5195 10.8948 10.707 10.7072C10.8946 10.5197 10.9999 10.2653 10.9999 10.0001V3.00012C10.9999 2.73491 10.8946 2.48055 10.707 2.29302C10.5195 2.10548 10.2652 2.00012 9.99994 2.00012H2.99994C2.73472 2.00012 2.48037 2.10548 2.29283 2.29302C2.1053 2.48055 1.99994 2.73491 1.99994 3.00012V10.0001C1.99994 10.2653 2.1053 10.5197 2.29283 10.7072C2.48037 10.8948 2.73472 11.0001 2.99994 11.0001ZM3.99994 4.00012H8.99994V9.00012H3.99994V4.00012Z" fill="#6C5DD3"/>
<path d="M14.0001 11.0001H21.0001C21.2653 11.0001 21.5196 10.8948 21.7072 10.7072C21.8947 10.5197 22.0001 10.2653 22.0001 10.0001V3.00012C22.0001 2.73491 21.8947 2.48055 21.7072 2.29302C21.5196 2.10548 21.2653 2.00012 21.0001 2.00012H14.0001C13.7348 2.00012 13.4805 2.10548 13.293 2.29302C13.1054 2.48055 13.0001 2.73491 13.0001 3.00012V10.0001C13.0001 10.2653 13.1054 10.5197 13.293 10.7072C13.4805 10.8948 13.7348 11.0001 14.0001 11.0001ZM15.0001 4.00012H20.0001V9.00012H15.0001V4.00012Z" fill="#6C5DD3"/>
<path d="M2.99994 21.9999H9.99994C10.2652 21.9999 10.5195 21.8945 10.707 21.707C10.8946 21.5194 10.9999 21.2651 10.9999 20.9999V13.9999C10.9999 13.7347 10.8946 13.4803 10.707 13.2928C10.5195 13.1052 10.2652 12.9999 9.99994 12.9999H2.99994C2.73472 12.9999 2.48037 13.1052 2.29283 13.2928C2.1053 13.4803 1.99994 13.7347 1.99994 13.9999V20.9999C1.99994 21.2651 2.1053 21.5194 2.29283 21.707C2.48037 21.8945 2.73472 21.9999 2.99994 21.9999ZM3.99994 14.9999H8.99994V19.9999H3.99994V14.9999Z" fill="#6C5DD3"/>
<path d="M14.0001 21.9999H21.0001C21.2653 21.9999 21.5196 21.8945 21.7072 21.707C21.8947 21.5194 22.0001 21.2651 22.0001 20.9999V13.9999C22.0001 13.7347 21.8947 13.4803 21.7072 13.2928C21.5196 13.1052 21.2653 12.9999 21.0001 12.9999H14.0001C13.7348 12.9999 13.4805 13.1052 13.293 13.2928C13.1054 13.4803 13.0001 13.7347 13.0001 13.9999V20.9999C13.0001 21.2651 13.1054 21.5194 13.293 21.707C13.4805 21.8945 13.7348 21.9999 14.0001 21.9999ZM15.0001 14.9999H20.0001V19.9999H15.0001V14.9999Z" fill="#6C5DD3"/>
</svg>
