<svg width="24" height="24" viewBox="0 0 24 24" fill="none" xmlns="http://www.w3.org/2000/svg">
<path d="M2.99991 5H20.9999C21.2651 5 21.5195 4.89464 21.707 4.7071C21.8946 4.51957 21.9999 4.26521 21.9999 4C21.9999 3.73478 21.8946 3.48043 21.707 3.29289C21.5195 3.10536 21.2651 3 20.9999 3H2.99991C2.73469 3 2.48034 3.10536 2.2928 3.29289C2.10527 3.48043 1.99991 3.73478 1.99991 4C1.99991 4.26521 2.10527 4.51957 2.2928 4.7071C2.48034 4.89464 2.73469 5 2.99991 5Z" fill="#AAAAAA"/>
<path d="M2.99991 13.0002H20.9999C21.2651 13.0002 21.5195 12.8948 21.707 12.7073C21.8946 12.5198 21.9999 12.2654 21.9999 12.0002C21.9999 11.735 21.8946 11.4806 21.707 11.2931C21.5195 11.1055 21.2651 11.0002 20.9999 11.0002H2.99991C2.73469 11.0002 2.48034 11.1055 2.2928 11.2931C2.10527 11.4806 1.99991 11.735 1.99991 12.0002C1.99991 12.2654 2.10527 12.5198 2.2928 12.7073C2.48034 12.8948 2.73469 13.0002 2.99991 13.0002Z" fill="#AAAAAA"/>
<path d="M2.99991 20.9999H20.9999C21.2651 20.9999 21.5195 20.8945 21.707 20.707C21.8946 20.5195 21.9999 20.2651 21.9999 19.9999C21.9999 19.7347 21.8946 19.4803 21.707 19.2928C21.5195 19.1052 21.2651 18.9999 20.9999 18.9999H2.99991C2.73469 18.9999 2.48034 19.1052 2.2928 19.2928C2.10527 19.4803 1.99991 19.7347 1.99991 19.9999C1.99991 20.2651 2.10527 20.5195 2.2928 20.707C2.48034 20.8945 2.73469 20.9999 2.99991 20.9999Z" fill="#AAAAAA"/>
</svg>
