<svg id="Capa_1" enable-background="new 0 0 512 512" height="512" viewBox="0 0 512 512" width="512" xmlns="http://www.w3.org/2000/svg"><g><path d="m61.708 134.989c-34.026 0-61.708 27.683-61.708 61.709v8.133l39.077 37.305-39.077 34.707v117.601c0 34.026 27.682 61.709 61.708 61.709h179.302l30.91-137.498-30.91-183.665h-179.302z" fill="#c4e83b"/><path d="m307.487 134.989h-66.477v321.164h179.302c34.026 0 61.708-27.683 61.708-61.709v-157.635z" fill="#9ddb2c"/></g><path d="m265.998 371.927h99.125v30.013h-99.125z" fill="#75b843"/><path d="m397.521 371.927h33.283v30.013h-33.283z" fill="#75b843"/><g><path d="m86.975 411.159c-25.504 0-46.252-20.749-46.252-46.252s20.748-46.252 46.252-46.252 46.252 20.749 46.252 46.252-20.748 46.252-46.252 46.252z" fill="#ffee42"/></g><g><path d="m0 204.831v72.012h241.011l19.827-34.707-19.827-37.305z" fill="#6058ad"/><path d="m241.011 204.831h156.442v72.012h-156.442z" fill="#453f81"/></g><g><g><g><g><path d="m291.004 166.345c0 60.929 49.569 110.498 110.498 110.498l20.863-108.306-20.863-112.69c-60.929 0-110.498 49.569-110.498 110.498z" fill="#fd3e81"/><path d="m401.502 55.847v220.996c60.929 0 110.498-49.569 110.498-110.498s-49.569-110.498-110.498-110.498z" fill="#e50070"/></g><g fill="#edf5ff"><path d="m386.502 98.139v75.273h15l7.506-37.637-7.506-37.636z"/><path d="m386.502 213.727c.364 8.127 6.591 15 15 15l5.439-15.145-5.439-14.855c-7.846 0-15.363 6.899-15 15z"/></g></g><path d="m401.502 98.139h15v75.273h-15z" fill="#d6e8fd"/></g><path d="m416.502 213.727c-.364-8.127-6.591-15-15-15v30c7.846 0 15.363-6.9 15-15z" fill="#d6e8fd"/></g></svg>